inDegrees=yes
name=teste_3imus.mot
DataType=double
version=3
OpenSimVersion=4.5
endheader
time	hip_flexion_r	knee_angle_r	hip_flexion_l	knee_angle_l	gearToGround_coord_0
56.00247406959534	89.47551938716217	-92.70723547551508	111.6084495695412	-89.01484151648731	-179.9999999892295
56.00534868240356	89.47733569310539	-92.70929877550053	111.611476122863	-89.0161934659604	-179.997512371733
56.01315999031067	89.47890786016079	-92.71204713674561	111.6114456054712	-89.01644902922401	-179.9968963495099
56.019287109375	89.48043698977786	-92.7142629804934	111.6113722731706	-89.01711736972712	-179.9952847326238
56.02425289154053	89.48168964640776	-92.7160668793791	111.6112935272773	-89.01795627663651	-179.9932989914917
56.0332293510437	89.48265278783603	-92.71741842282917	111.6112145247331	-89.01901024403946	-179.9908484956458
56.0412437915802	89.48327159456639	-92.71819149369624	111.6111243158925	-89.02059102355162	-179.9872762539859
56.04823088645935	89.48387614262774	-92.71733325491037	111.6124066359405	-89.07310333771393	-179.9130703553831
56.05418753623962	89.4836847394328	-92.71711577719003	111.6123761720047	-89.07309510112651	-179.9131505535129
56.05717873573303	89.48326331631259	-92.71634067861058	111.6123495535234	-89.07308785066493	-179.9132133531543
56.06117796897888	89.48251855100811	-92.7149735783929	111.6123496089381	-89.073087865715	-179.9132134307062
56.06615591049194	89.48144491216038	-92.71301665836016	111.6123667627401	-89.07309255313062	-179.913173942184
56.07018232345581	89.4800435865067	-92.71048902786832	111.6123557800939	-89.07308953798089	-179.9131992293277
56.07316303253174	89.47831940010421	-92.70742323386251	111.6122310062965	-89.07305542817245	-179.9134862217188
56.07615518569946	89.47627180486337	-92.70385394748084	111.6118482438786	-89.07295241991039	-179.9143683344796
56.08015489578247	89.47386198798677	-92.69977762369135	111.6109168819225	-89.07271266021201	-179.9165306062778
56.08526372909546	89.47079164667778	-92.6949038494499	111.6083299298129	-89.07211969184303	-179.9226949607117
56.09117150306702	89.45827870155195	-92.68806213819292	111.5717572708344	-89.06525249287436	-180.0457006039274
56.09415745735168	89.45951693683593	-92.69089470511749	111.5709592083867	-89.06548486214128	-180.0503104797598
56.0991587638855	89.45598037449818	-92.70115706235532	111.5586748216592	-89.07188255638862	-180.1422298861956
56.10320401191711	89.45486341008819	-92.69089836350943	111.5649125314938	-89.06895931937828	-180.0887811779956
56.10823082923889	89.45413334138178	-92.69009645288037	111.5650338714752	-89.06891196541569	-180.0891465813555
56.11224341392517	89.45314260613463	-92.69061025457339	111.5474349904692	-89.01647737844871	-180.1004160488065
56.11921119689941	89.45487861650744	-92.69241902752006	111.5484960230138	-89.01632146527886	-180.0981059365783
56.12322998046875	89.45968559103414	-92.69101661861565	111.5615860916872	-89.01944571385509	-180.0568222569518
56.12627792358398	89.45930899688302	-92.69527007856195	111.5522048243017	-89.01932046303331	-180.0834989075562
56.12921905517578	89.46120792506129	-92.69756367627194	111.5532710918226	-89.01920467048872	-180.0826510787388
56.13321685791016	89.46412871513702	-92.70107650394974	111.5534632469219	-89.01918553032085	-180.0819991680581
56.13718509674072	89.46716361493965	-92.70469790348167	111.5538533357235	-89.01914822563462	-180.0806761885306
56.14123582839966	89.47021868814768	-92.70833260436504	111.5544467554362	-89.01909555721316	-180.0786888090603
56.14424681663513	89.47315576416362	-92.71181916083009	111.5552419513293	-89.01903292408932	-180.0760728571421
56.14720058441162	89.47585703149804	-92.7150089272593	111.5562425648174	-89.01896729194745	-180.0728554122907
56.1513135433197	89.47822346793839	-92.71776200391901	111.5574694309976	-89.01890704277712	-180.0690185733401
56.1541748046875	89.48016936827069	-92.71992969757841	111.5590076797199	-89.01886242447844	-180.0643674889708
56.15723252296448	89.48161501022804	-92.72128671752432	111.5612448516097	-89.01885326718697	-180.0578945316932
56.16616082191467	89.48263339305429	-92.72176476409062	111.5649548376371	-89.01897763429575	-180.0478255161943
56.17218065261841	89.48335566057935	-92.72205453417631	111.5683246197436	-89.01930691472447	-180.0393619312294
56.17816042900085	89.48418081443312	-92.72091710929288	111.5810842864996	-89.02177689086194	-180.0080191043633
56.18215775489807	89.48426451425732	-92.72064218790152	111.5850789058835	-89.02349472591918	-180.0019696474968
56.1852502822876	89.48297720765913	-92.7187568249384	111.5846493349585	-89.02315247992748	-180.0042128174049
56.18916893005371	89.4817547801852	-92.71698047263584	111.5840865355683	-89.02281155349776	-180.0054580161832
56.19318270683289	89.48007328121561	-92.71459955126483	111.5830270284957	-89.02218940350173	-180.0077844222066
56.19616889953613	89.47792741412124	-92.71175725199907	111.5809994437906	-89.02106887003373	-180.0122339541509
56.1991708278656	89.47498552493808	-92.70852991032613	111.5758757927603	-89.01856961003858	-180.023609914971
56.20258283615112	89.47094259948612	-92.70944943725684	111.553264521952	-89.01079367059909	-180.0801557813126
56.20726180076599	89.46929439457978	-92.70740905757631	111.5534369302568	-89.01078462779128	-180.0806780898216
56.21016621589661	89.46694280698074	-92.70465851467789	111.5528395704449	-89.01078959052568	-180.082440801745
56.21316361427307	89.46461811711778	-92.70214829983166	111.5518929659715	-89.01080903058627	-180.0852864321229
56.21722888946533	89.46241578993225	-92.70003995285576	111.5505535458602	-89.01086021156871	-180.0894290022786
56.22229409217834	89.46048193171626	-92.69853451863416	111.5488333835416	-89.01096485276108	-180.0949607225951
56.23127555847168	89.45904542898879	-92.6977177237257	111.5471263302344	-89.01110932423812	-180.1006989322933
56.23423361778259	89.45898021081224	-92.69429045604515	111.5541749623049	-89.01511531711402	-180.0787412991746
56.23721861839294	89.4565486676648	-92.69589789408968	111.6974201983875	-89.1804599019884	-179.6675877672395
56.2422502040863	89.45662678936927	-92.69739422128153	111.697826567426	-89.18063913333529	-179.6681365733556
56.24622988700867	89.45667077340894	-92.69781326941849	111.6984053861145	-89.18089170952479	-179.666878390351
56.25024461746216	89.45650989361633	-92.69740539479673	111.6981341610727	-89.18076476514103	-179.6674774238405
56.25419044494629	89.45786821814534	-92.6986507693082	111.6950976413374	-89.17927338576715	-179.6740814081114
56.2581844329834	89.45865066504206	-92.69940160200822	111.693464951806	-89.178524498592	-179.6778086687847
56.26122140884399	89.45969431506228	-92.7003184035653	111.6912272473907	-89.17763462963947	-179.682916145261
56.26522755622864	89.46084494362343	-92.70133152655829	111.6887491490038	-89.17679041752901	-179.6886546894876
56.26824378967285	89.46209884669506	-92.7024183957639	111.6860701761109	-89.17603006750345	-179.6950456191058
56.2721996307373	89.46307401737549	-92.70282901937013	111.6853327309845	-89.16940244082312	-179.7004735994253
56.27522492408752	89.46428625602913	-92.70453261816711	111.6828151730854	-89.1685957240138	-179.7062356228755
